<?xml version="1.0" encoding="UTF-8" standalone="no"?>

<svg xmlns="http://www.w3.org/2000/svg" xmlns:svg="http://www.w3.org/2000/svg"
   viewBox="0 0 100 100" version="1.1" >

<style type="text/css"><![CDATA[
path { fill:#FFFFFF; stroke:#f59d56; stroke-linecap:round; stroke-linejoin:round; stroke-width:3px; }
]]></style>

<path d="M 58.208333,29.104167 76.729166,23.812501 71.4375,42.333334" />
<path d="m 71.4375,58.208334 5.291666,18.520833 -18.520833,-5.291666" />
<path d="M 42.333333,71.4375 23.8125,76.729167 29.104167,58.208334" />
<path d="M 29.104167,42.333334 23.8125,23.812501 42.333333,29.104168" />
<path d="M 39.6875,39.6875 50.270833,0 60.854166,39.6875" />
<path d="M 60.854166,39.6875 100.54167,50.270833 60.854166,60.854166" />
<path d="M 60.854166,60.854166 50.270833,100.54167 39.6875,60.854166" />
<path d="M 39.6875,39.6875 0,50.270833 39.6875,60.854166" />
<path d="M 39.6875,39.6875 60.854166,60.854166" />
<path d="M 39.6875,60.854166 60.854166,39.6875" />
<circle
		style="fill:#ffffff;fill-opacity:0.700581;stroke:#000000"
		cx="50.270832"
		cy="50.270832"
		rx="21.097073"
		ry="21.166664" />
</svg>
